<svg xmlns="http://www.w3.org/2000/svg" viewBox="0 0 32 32">
  <!-- SudsyGlow Sakura - Soft Pink Version -->
  
  <!-- Sakura flower petals in soft blush -->
  <g fill="#E8D4D4" transform="translate(16,16)">
    <!-- 5 petals with notched tips (classic sakura shape) -->
    <path d="M0,-13 C4,-11 5,-7 3,-3 L0,-1 L-3,-3 C-5,-7 -4,-11 0,-13" transform="rotate(0)"/>
    <path d="M0,-13 C4,-11 5,-7 3,-3 L0,-1 L-3,-3 C-5,-7 -4,-11 0,-13" transform="rotate(72)"/>
    <path d="M0,-13 C4,-11 5,-7 3,-3 L0,-1 L-3,-3 C-5,-7 -4,-11 0,-13" transform="rotate(144)"/>
    <path d="M0,-13 C4,-11 5,-7 3,-3 L0,-1 L-3,-3 C-5,-7 -4,-11 0,-13" transform="rotate(216)"/>
    <path d="M0,-13 C4,-11 5,-7 3,-3 L0,-1 L-3,-3 C-5,-7 -4,-11 0,-13" transform="rotate(288)"/>
  </g>
  
  <!-- Center -->
  <circle cx="16" cy="16" r="2.5" fill="#8B9B7E"/>
</svg>
